<svg xmlns="http://www.w3.org/2000/svg" viewBox="0 0 250.83 73" width="130" height="38"><defs><style>.cls-1{fill:#fff;}.cls-2,.cls-3{fill:#e2001a;}.cls-2,.cls-4{fill-rule:evenodd;}.cls-4,.cls-5{fill:#1a171b;}</style></defs><title>add-usersAsset 1</title><g id="Layer_2" data-name="Layer 2"><g id="Livello_1" data-name="Livello 1"><path class="cls-1" d="M73.15,71.92H86.91a5.3,5.3,0,0,0,5.3-5.3V65.45a14.58,14.58,0,0,0,12.4,6.47h11.73a5.3,5.3,0,0,0,5.3-5.3v-.46a26.32,26.32,0,0,0,17.24,6.48,26.91,26.91,0,0,0,19.13-8v2a5.3,5.3,0,0,0,5.3,5.31h14.47a5.27,5.27,0,0,0,2.22-.51,5.21,5.21,0,0,0,2.23.51h14.42A5.29,5.29,0,0,0,202,66.59v-1a24.93,24.93,0,0,0,26.64,5.53,5.22,5.22,0,0,0,2.72.79h14.2a5.31,5.31,0,0,0,5.31-5.31V24a5.29,5.29,0,0,0-4.89-5.28h-.53v-.38a6.75,6.75,0,1,0-13.49,0c0,.12,0,.24,0,.36h-.57a5.35,5.35,0,0,0-3.09,1,23.35,23.35,0,0,0-8.9-1.83A24.88,24.88,0,0,0,202,25.09V5.31A5.31,5.31,0,0,0,196.65,0H182.23A5.32,5.32,0,0,0,180,.51,5.21,5.21,0,0,0,177.77,0H163.31A5.31,5.31,0,0,0,158,5.31V24.43a26.81,26.81,0,0,0-19.12-8.08,26.33,26.33,0,0,0-17,6.22,5.23,5.23,0,0,0-5.08-3.89h-2.88v-9a5.31,5.31,0,0,0-7.26-4.93L92.8,10.25a5.31,5.31,0,0,0-3.34,4.93v3.5H89.2a4.91,4.91,0,0,0-1.16.14,5.29,5.29,0,0,0-1.13-.13H70.15a5.12,5.12,0,0,0-2.22.51,5.29,5.29,0,0,0-2.24-.51h-18a5.3,5.3,0,0,0-4.84,3.14,21.2,21.2,0,0,0-17-3.75,31,31,0,0,0-4,1.42,5.36,5.36,0,0,0-2.8-.81H5.31A5.29,5.29,0,0,0,0,24V66.59a5.12,5.12,0,0,0,5.11,5.29H23.16a5.32,5.32,0,0,0,2.23-.51,5.45,5.45,0,0,0,2.24.51H44.37a5.31,5.31,0,0,0,3.76-1.56,5.26,5.26,0,0,0,1.07-1.58,21.26,21.26,0,0,0,17.07,3.76,28.38,28.38,0,0,0,4-1.42A5.67,5.67,0,0,0,73.15,71.92Z"/><path class="cls-2" d="M94.74,56.33V35.77H89.2V24.38h5.54v-8.8l13.86-5.53V24.38h8.19v11.4h-8.21v16.8c0,2.59,1.3,3.53,4.52,3.53h3.24v11H104.61c-6.26,0-9.87-4.78-9.87-10.73"/><rect class="cls-3" x="163.35" y="5.69" width="14.48" height="61.34"/><polyline class="cls-2" points="182.31 5.68 196.73 5.69 196.73 67.03 182.31 67.03 182.31 5.68"/><path class="cls-2" d="M131.56,40.07c0-2.59,3.06-6,7.3-6,4.6,0,7.46,3.86,7.46,6H131.56m28.76,10.34A22.22,22.22,0,0,1,138.9,67.77c-12.16,0-21.74-10.19-21.74-22.83S126.74,22,138.9,22s22,10.26,22,22.9a21.78,21.78,0,0,1-.28,3.63l-29.47,0a7.55,7.55,0,0,0,7.66,6.89A7.7,7.7,0,0,0,146,50.41Z"/><path class="cls-2" d="M73.11,24.38H86.88V67.06H73.12V62.92c-3.34,3.23-4.51,3.86-8,4.9-5.19,1.26-11.83-1.12-14.34-4.57a15,15,0,0,1-3.09-9.17l0-29.7H61.4v25c0,4.31,2.36,7.22,5.92,7.22,3.26,0,5.79-2.88,5.79-7.22v-25"/><path class="cls-4" d="M19,67H5.19V24.38H19v4.16c3.34-3.24,4.51-3.87,8-4.92,5.17-1.27,11.79,1.12,14.33,4.58a15.65,15.65,0,0,1,3.11,9.16V67H30.65v-25c0-4.3-2.32-7.2-5.91-7.2-3.24,0-5.77,2.87-5.77,7.2V67"/><path class="cls-2" d="M213,45.65a9.47,9.47,0,1,1,9.47,9.72A9.6,9.6,0,0,1,213,45.65m-14,.11c0-12.27,9.19-22.21,20.56-22.21a19.84,19.84,0,0,1,12,4.44V24.38h14.14V67.05H231.44l0-3.44c-3,3-7.37,4.34-12,4.34C208.15,68,198.93,58,198.93,45.76Z"/><path class="cls-4" d="M238,16.11h.3c.51,0,1.09.05,1.09.65s-.58.7-1.09.7H238V16.11m-1,4.22h1V18.25h.29c.46,0,.55.15.71.51l.59,1.57h1.16l-.83-1.95c-.09-.23-.27-.5-.53-.52v0a1.15,1.15,0,0,0,1.05-1.17c0-1.38-1.3-1.35-2.39-1.35h-1Z"/><path class="cls-5" d="M238.66,13.59a4.24,4.24,0,1,0,4.24,4.24A4.23,4.23,0,0,0,238.66,13.59Zm0,8.06a3.82,3.82,0,1,1,3.82-3.82A3.82,3.82,0,0,1,238.66,21.65Z"/></g></g></svg>